Music_UemuraLatios:
	channel_count 3
	channel 1, Music_UemuraLatios_Ch1
	channel 2, Music_UemuraLatios_Ch2
	channel 3, Music_UemuraLatios_Ch3

Music_UemuraLatios_Ch1:
	volume 7, 7
	duty_cycle 2
	note_type 12, 15, 7
	tempo 106
	octave 4
	note G_, 1
	note F#, 1
	note F_, 1
	note E_, 1
	note F_, 1
	note E_, 1
	note D#, 1
	note D_, 1
	note D#, 1
	note D_, 1
	note C#, 1
	note C_, 1
	note C#, 1
	note C_, 1
	octave 3
	note B_, 1
	note A#, 1
	note B_, 1
	note A#, 1
	note A_, 1
	note G#, 1
	note A_, 1
	note G#, 1
	note G_, 1
	note F#, 1
	note G_, 1
	note F#, 1
	note F_, 1
	note E_, 1
	note F_, 1
	note E_, 1
	note D#, 1
	note D_, 1
	volume_envelope 14, 7
	duty_cycle 1
	note G_, 2
	rest 4
	note D_, 2
	rest 4
	note G_, 2
	rest 2
	note G#, 2
	rest 4
	note A#, 2
	rest 4
	note G#, 2
	rest 2
	note G_, 2
	rest 4
	note D_, 2
	rest 4
	note G_, 2
	rest 2
	note G#, 2
	rest 4
	note A#, 2
	rest 4
	octave 4
	note C_, 4
	note G_, 2
	rest 4
	note D_, 2
	rest 4
	note G_, 2
	rest 2
	note G#, 2
	rest 4
	note A#, 2
	rest 4
	note G#, 2
	rest 2
.mainloop:
	volume_envelope 14, 7
	vibrato 0, 0, 0
	note G_, 2
	rest 4
	note D_, 2
	rest 4
	note G_, 2
	rest 2
	note G#, 2
	rest 4
	note A#, 2
	rest 4
	octave 5
	note C_, 4
	octave 3
	note G_, 6
	note G#, 6
	octave 4
	note D_, 4
	note C_, 2
	octave 3
	note A#, 2
	note G#, 2
	note G_, 2
	note A#, 2
	note G#, 2
	note G_, 2
	note D_, 2
	vibrato 0, 1, 1
	note D#, 8
	note G#, 8
	octave 4
	note C_, 5
	note_type 1, 14, 7
	rest 4
	note_type 8, 14, 7
	note D_, 1
	note_type 12, 14, 7
	note D#, 4
	note D#, 2
	note D_, 2
	octave 3
	note A#, 2
	duty_cycle 0
	vibrato 18, 2, 3
	volume_envelope 14, -1
	note G_, 6
	vibrato 0, 1, 1
	note G#, 6
	octave 4
	note D_, 4
	note C_, 2
	octave 3
	note A#, 2
	note G#, 2
	octave 4
	note C_, 4
	octave 3
	note A#, 2
	note G#, 2
	note G_, 2
	duty_cycle 1
	octave 2
	note_type 8, 14, 8
	note C_, 1
	note_type 1, 14, 7
	rest 4
	note_type 12, 14, 7
	rest 1
	note_type 8, 14, 8
	note C_, 1
	note_type 1, 14, 7
	rest 4
	note_type 12, 14, 7
	octave 3
	rest 1
	note D#, 1
	note D_, 1
	note C_, 1
	note D_, 1
	octave 2
	note_type 8, 14, 8
	note C_, 1
	note_type 1, 14, 7
	rest 4
	note_type 12, 14, 7
	rest 1
	note_type 8, 14, 8
	note C_, 1
	note_type 1, 14, 7
	rest 4
	note_type 12, 14, 7
	octave 3
	rest 1
	note G#, 1
	note G_, 1
	note F_, 1
	note G_, 1
	octave 4
	note C_, 1
	rest 1
	note C_, 1
	rest 1
	octave 3
	note F_, 1
	octave 4
	note_type 4, 14, 7
	rest 1
	note_type 8, 14, 7
	note E_, 1
	note_type 12, 14, 7
	note F_, 4
	note D#, 2
	note D_, 2
	note C_, 2
	octave 3
	duty_cycle 2
	volume_envelope 14, -7
	vibrato 18, 2, 1
	note A#, 12
	note G_, 4
	octave 4
	note D_, 16
	octave 3
	note G#, 12
	note F_, 4
	octave 4
	note C_, 16
	octave 3
	note A#, 12
	note G_, 4
	octave 4
	note D_, 16
	note D_, 16
	rest 10
	duty_cycle 0
	volume_envelope 14, 8
	vibrato 18, 2, 3
	note C_, 2
	note D_, 2
	rest 2
	note D#, 12
	note D#, 1
	rest 1
	note D_, 1
	rest 1
	note D#, 2
	rest 2
	note D_, 2
	rest 2
	note C_, 2
	rest 2
	octave 3
	note A#, 2
	rest 2
	note G#, 12
	note_type 6, 14, 8
	note F_, 7
	note B_, 1
	octave 4
	note C_, 1
	note C#, 1
	note_type 12, 14, 8
	note C_, 9
	duty_cycle 1
	note C_, 2
	note G_, 2
	rest 2
	note G#, 12
	note G#, 1
	rest 1
	note G_, 1
	rest 1
	note G#, 2
	note_type 6, 14, 8
	rest 2
	note_type 12, 14, 8
	rest 1
	note G_, 2
	rest 2
	note F_, 2
	rest 2
	note D#, 1
	rest 1
	note F_, 1
	rest 1
	note D#, 10
	note F_, 2
	note D#, 2
	note C_, 2
	note D_, 8
	note G_, 8
	volume_envelope 10, 7
	duty_cycle 2
	note C_, 2
	volume_envelope 4, 8
	note C_, 4
	octave 3
	volume_envelope 10, 7
	note G_, 2
	volume_envelope 4, 8
	note G_, 4
	octave 4
	volume_envelope 10, 7
	note C_, 2
	volume_envelope 4, 8
	note C_, 2
	volume_envelope 10, 7
	note C#, 2
	volume_envelope 4, 8
	note C#, 2
	volume_envelope 10, 7
	note C_, 2
	volume_envelope 4, 8
	note C_, 2
	octave 3
	volume_envelope 10, 7
	note A#, 2
	volume_envelope 4, 8
	note A#, 2
	octave 4
	volume_envelope 10, 7
	note C#, 2
	volume_envelope 4, 8
	note C#, 2
	volume_envelope 10, 7
	note C_, 2
	volume_envelope 4, 8
	note C_, 4
	octave 3
	volume_envelope 10, 7
	note G_, 2
	volume_envelope 4, 8
	note G_, 4
	octave 4
	volume_envelope 10, 7
	note C_, 2
	volume_envelope 4, 8
	note C_, 2
	volume_envelope 10, 7
	note E_, 2
	volume_envelope 4, 8
	note E_, 4
	volume_envelope 10, 7
	note C_, 2
	volume_envelope 4, 8
	note C_, 2
	volume_envelope 10, 7
	note C#, 2
	octave 3
	note B_, 2
	volume_envelope 4, 8
	note B_, 2
	octave 4
	volume_envelope 14, 7
	duty_cycle 1
	note G_, 2
	rest 4
	note D_, 2
	rest 4
	note G_, 2
	rest 2
	note G#, 2
	rest 4
	note A#, 2
	rest 4
	note G#, 2
	rest 2
	sound_loop 0, .mainloop

Music_UemuraLatios_Ch2:
	duty_cycle 1
	note_type 12, 14, 7
	octave 5
	note D_, 1
	note C#, 1
	note D_, 2
	note D_, 1
	note C#, 1
	note D_, 2
	note D_, 1
	note C#, 1
	note D_, 2
	note D_, 1
	note C#, 1
	note D_, 2
	note D_, 1
	note C#, 1
	note D_, 2
	note D_, 1
	note C#, 1
	note D_, 2
	note D_, 1
	note C#, 1
	note D_, 2
	note D_, 1
	note C#, 1
	note D_, 2
	octave 3
	volume_envelope 13, 7
	note D_, 2
	rest 4
	octave 2
	note G_, 2
	rest 4
	octave 3
	note D_, 2
	rest 2
	note D#, 2
	rest 4
	note C_, 2
	rest 4
	note D#, 2
	rest 2
	note D_, 2
	rest 4
	octave 2
	note G_, 2
	rest 4
	octave 3
	note D_, 2
	rest 2
	note D#, 2
	rest 4
	note F_, 2
	rest 4
	note F#, 4
	octave 4
	note D_, 2
	rest 4
	octave 3
	note G_, 2
	rest 4
	octave 4
	note D_, 2
	rest 2
	note D#, 2
	rest 4
	note C_, 2
	rest 4
	note D#, 2
	rest 2
.mainloop:
	volume_envelope 13, 7
	note D_, 2
	rest 4
	octave 3
	note G_, 2
	rest 4
	octave 4
	note D_, 2
	rest 2
	note D#, 2
	rest 4
	note F_, 2
	rest 4
	note F#, 4
	octave 2
	note G_, 2
	note G#, 2
	note A#, 2
	octave 3
	note C_, 4
	note D_, 2
	octave 2
	note A#, 4
	octave 3
	note C_, 2
	octave 2
	note A#, 2
	octave 3
	note C_, 2
	note D_, 4
	octave 2
	note A#, 2
	note G_, 2
	note A#, 2
	octave 3
	note C_, 8
	note D#, 8
	note G#, 6
	octave 4
	note C_, 4
	note C_, 2
	octave 3
	note A#, 2
	note G_, 2
	octave 2
	note G_, 2
	note G#, 2
	note A#, 2
	octave 3
	note C_, 4
	note D_, 2
	octave 2
	note A#, 4
	note G_, 2
	note G#, 2
	note A#, 2
	octave 3
	note C_, 4
	note D_, 2
	note F_, 2
	octave 2
	note A#, 2
	octave 3
	note C_, 8
	note D#, 8
	note G#, 6
	octave 4
	note C_, 4
	octave 3
	note A#, 2
	note G#, 2
	note F#, 2
	duty_cycle 2
	note G_, 6
	note D_, 6
	octave 2
	note A#, 4
	octave 3
	note A#, 6
	note G#, 6
	note G_, 4
	note F_, 6
	note C_, 6
	octave 2
	note G#, 4
	octave 3
	note G#, 6
	note G_, 6
	note F_, 4
	note G_, 6
	note D_, 6
	octave 2
	note A#, 4
	octave 3
	note A#, 16
	note G_, 12
	note D_, 4
	volume_envelope 8, -7
	note A#, 10
	duty_cycle 0
	volume_envelope 13, 8
	vibrato 0, 1, 6
	note A#, 2
	octave 4
	note C_, 2
	rest 2
	octave 3
	vibrato 18, 4, 2
	note G_, 8
	note D#, 8
	note F_, 4
	note G_, 4
	note G#, 4
	note F_, 4
	note D#, 12
	note C_, 4
	octave 2
	note A#, 10
	octave 4
	duty_cycle 1
	vibrato 18, 2, 3
	note F_, 2
	note D_, 2
	rest 2
	note F_, 10
	note F_, 2
	note D#, 2
	rest 2
	note D#, 4
	note D_, 4
	note C_, 4
	octave 3
	note G#, 4
	note G#, 10
	rest 6
	note A#, 8
	note B_, 8
	octave 2
	volume_envelope 13, 7
	vibrato 0, 0, 0
	note G_, 2
	rest 4
	note C_, 2
	rest 4
	note G_, 2
	rest 2
	note G#, 2
	rest 4
	note F_, 2
	rest 4
	note G#, 2
	rest 2
	note G_, 2
	rest 4
	note C_, 2
	rest 4
	note G_, 2
	rest 2
	note G#, 2
	rest 4
	note F_, 2
	rest 4
	note B_, 4
	octave 4
	note D_, 2
	rest 4
	octave 3
	note G_, 2
	rest 4
	octave 4
	note D_, 2
	rest 2
	note D#, 2
	rest 4
	note C_, 2
	rest 4
	note D#, 2
	rest 2
	sound_loop 0, .mainloop

Music_UemuraLatios_Ch3:
	note_type 12, 2, 0
	octave 3
	note G_, 1
	rest 1
	octave 4
	note D_, 1
	rest 1
	octave 3
	note G_, 1
	rest 1
	octave 4
	note D_, 1
	rest 1
	octave 3
	note G_, 1
	rest 1
	octave 4
	note D_, 1
	rest 1
	octave 3
	note G_, 1
	rest 1
	octave 4
	note D_, 1
	rest 1
	octave 3
	note F_, 1
	rest 1
	note G#, 1
	rest 1
	note F_, 1
	rest 1
	note G#, 1
	rest 1
	note F_, 1
	rest 1
	note G#, 1
	rest 1
	note F_, 1
	rest 1
	note G#, 1
	rest 1
	volume_envelope 1, 0
	note G_, 2
	note D_, 2
	note G_, 2
	note G#, 4
	note G_, 2
	note F_, 2
	note G#, 2
	note G_, 2
	note D_, 2
	note G_, 2
	note A#, 4
	note G_, 2
	note G#, 2
	note F#, 2
	note G_, 2
	note D_, 2
	note G_, 2
	note G#, 4
	note G_, 2
	note F_, 2
	note G#, 2
	note G_, 2
	note D_, 2
	note G_, 2
	note B_, 4
	note G_, 2
	note G#, 2
	note F#, 2
	octave 2
	volume_envelope 1, 2
	note G_, 2
	note D_, 2
	note G_, 2
	note G#, 4
	note G_, 2
	note F_, 2
	note G#, 2
	note G_, 2
	note D_, 2
	note G_, 2
	note A#, 4
	note G_, 2
	note G#, 2
	note F#, 2
.mainloop:
	volume_envelope 1, 2
	note G_, 1
	rest 1
	note G_, 1
	rest 3
	note A#, 1
	rest 1
	note A#, 1
	rest 3
	note A_, 1
	note_type 8, 1, 2
	rest 1
	note_type 1, 1, 2
	rest 4
	note_type 12, 1, 2
	note A_, 1
	rest 3
	note G#, 1
	note_type 1, 1, 2
	rest 12
	note_type 12, 1, 2
	note G#, 1
	note_type 1, 1, 2
	rest 12
	note_type 12, 1, 2
	note F#, 2
	rest 2
	note D_, 2
	note F_, 2
	note F#, 2
	note G_, 2
	octave 3
	note D_, 2
	octave 2
	note G_, 2
	octave 3
	note D_, 2
	octave 2
	note G_, 2
	octave 3
	note D_, 2
	octave 2
	note G_, 2
	octave 3
	note D_, 2
	octave 2
	note G_, 2
	octave 3
	note D_, 2
	octave 2
	note G_, 2
	octave 3
	note D_, 4
	octave 2
	note G_, 2
	note B_, 2
	octave 3
	note D_, 2
	octave 2
	note G#, 2
	octave 3
	note D#, 2
	octave 2
	note G#, 2
	octave 3
	note D#, 2
	octave 2
	note G#, 2
	octave 3
	note D#, 2
	octave 2
	note G#, 2
	octave 3
	note D#, 2
	octave 2
	note G#, 2
	octave 3
	note C_, 2
	note D#, 2
	note G#, 4
	octave 2
	note G#, 2
	note A#, 2
	note G#, 2
	note G_, 2
	octave 3
	note D_, 2
	octave 2
	note G_, 2
	octave 3
	note D_, 2
	octave 2
	note G_, 2
	octave 3
	note D_, 2
	octave 2
	note G_, 2
	octave 3
	note D_, 2
	octave 2
	note G_, 2
	octave 3
	note D_, 2
	octave 2
	note G_, 2
	octave 3
	note D_, 4
	octave 2
	note G_, 2
	octave 3
	note D_, 2
	octave 2
	note G_, 2
	note F_, 2
	octave 3
	note C_, 2
	octave 2
	note F_, 2
	octave 3
	note C_, 2
	octave 2
	note F_, 2
	octave 3
	note C_, 2
	octave 2
	note F_, 2
	octave 3
	note C_, 2
	octave 2
	note F_, 2
	octave 3
	note C_, 2
	octave 2
	note F_, 2
	octave 3
	note C_, 4
	note C_, 2
	octave 2
	note F_, 2
	octave 3
	note C_, 2
	octave 2
	note A#, 2
	octave 3
	note D_, 2
	octave 2
	note G_, 2
	octave 3
	note D_, 2
	octave 2
	note A#, 2
	octave 3
	note D_, 2
	octave 2
	note G_, 2
	octave 3
	note D_, 2
	octave 2
	note G_, 2
	octave 3
	note D_, 2
	octave 2
	note G_, 2
	octave 3
	note D_, 2
	octave 2
	note G_, 2
	octave 3
	note D_, 2
	octave 2
	note G_, 2
	octave 3
	note D_, 2
	octave 2
	note G#, 2
	octave 3
	note C_, 2
	octave 2
	note F_, 2
	octave 3
	note C_, 2
	octave 2
	note F_, 2
	octave 3
	note C_, 2
	octave 2
	note F_, 2
	octave 3
	note C_, 2
	octave 2
	note F_, 2
	octave 3
	note C_, 2
	octave 2
	note F_, 2
	octave 3
	note C_, 4
	octave 2
	note A#, 2
	note F_, 2
	note F#, 2
	note G_, 2
	note A#, 2
	note D_, 2
	note A#, 2
	note G_, 2
	note A#, 2
	note D_, 2
	note A#, 2
	note G_, 2
	octave 3
	note D_, 2
	octave 2
	note G_, 2
	octave 3
	note D_, 2
	octave 2
	note G_, 2
	note A#, 2
	rest 4
	note G_, 2
	note A#, 2
	note D_, 2
	note A#, 2
	note G_, 2
	note A#, 2
	note D_, 2
	note A#, 2
	note G_, 2
	note D_, 2
	note G_, 2
	octave 3
	note D_, 2
	note G_, 2
	octave 2
	note B_, 2
	octave 3
	note D_, 2
	note E_, 2
	volume_envelope 1, 3
	note C_, 2
	note G_, 2
	note C_, 2
	note G_, 2
	note C_, 2
	note G_, 2
	note C_, 2
	note G_, 2
	octave 2
	note A#, 2
	octave 3
	note F_, 2
	octave 2
	note A#, 2
	octave 3
	note F_, 2
	octave 2
	note A#, 2
	octave 3
	note F_, 2
	octave 2
	note A#, 2
	octave 3
	note F_, 2
	octave 2
	note G#, 2
	octave 3
	note D#, 2
	octave 2
	note G#, 2
	octave 3
	note D#, 2
	octave 2
	note G#, 2
	octave 3
	note D#, 2
	octave 2
	note G#, 2
	octave 3
	note D#, 2
	octave 2
	note G_, 2
	octave 3
	note C#, 2
	octave 2
	note G_, 2
	octave 3
	note C#, 2
	octave 2
	note G_, 2
	octave 3
	note C_, 2
	octave 2
	note G_, 2
	octave 3
	note C_, 2
	octave 2
	note F_, 2
	octave 3
	note C_, 2
	octave 2
	note F_, 2
	octave 3
	note C_, 2
	octave 2
	note F_, 2
	octave 3
	note C_, 2
	octave 2
	note F_, 2
	octave 3
	note C_, 2
	octave 2
	note D#, 2
	note A#, 2
	note D#, 2
	note A#, 2
	note D#, 2
	note A#, 2
	note D#, 2
	note A#, 2
	note C#, 2
	note G#, 2
	note C#, 2
	note G#, 2
	note C#, 2
	note G#, 2
	note C#, 1
	octave 4
	volume_envelope 1, 0
	note C_, 3
	octave 3
	note_type 6, 1, 0
	note A#, 5
	note_type 1, 1, 0
	rest 2
	note_type 6, 1, 0
	note G_, 5
	note_type 1, 1, 0
	rest 2
	note_type 6, 1, 0
	note D_, 5
	note_type 1, 1, 0
	rest 2
	note_type 6, 1, 0
	octave 2
	note B_, 5
	note_type 1, 1, 0
	rest 2
	note_type 6, 1, 0
	note G_, 5
	note_type 1, 1, 0
	rest 2
	note_type 6, 1, 0
	note B_, 5
	note_type 1, 1, 0
	rest 2
	note_type 12, 1, 0
	octave 3
	note C_, 2
	note G_, 2
	note C_, 2
	note G_, 2
	note C_, 2
	note G_, 2
	note C_, 2
	note G_, 2
	note C_, 2
	note G_, 2
	note C_, 2
	note G_, 2
	note C_, 2
	note G_, 2
	note C_, 2
	note G_, 2
	note C_, 2
	note G_, 2
	note C_, 2
	note G_, 2
	note C_, 2
	note G_, 2
	note C_, 2
	note G_, 2
	note C_, 2
	note D#, 2
	note F#, 2
	note G_, 4
	note C#, 2
	note D#, 2
	octave 2
	note B_, 2
	volume_envelope 1, 2
	note G_, 2
	note D_, 2
	note G_, 2
	note G#, 4
	note G_, 2
	note F_, 2
	note G#, 2
	note G_, 2
	note D_, 2
	note G_, 2
	note A#, 4
	note G_, 2
	note G#, 2
	note F#, 2
	sound_loop 0, .mainloop
